<?xml version="1.0" encoding="UTF-8"?> <svg xmlns="http://www.w3.org/2000/svg" width="408" height="377" viewBox="0 0 408 377" fill="none"> <path fill-rule="evenodd" clip-rule="evenodd" d="M298.728 53.2791C298.899 52.7111 299.421 52.3212 300.014 52.3181C300.017 52.3181 300.02 52.3181 300.024 52.3181C300.563 52.3209 300.998 52.7602 300.995 53.2995C300.994 53.4956 300.994 53.61 300.994 53.6427C300.994 53.6448 300.994 53.6472 300.994 53.6498C300.994 54.2893 300.482 54.8111 299.842 54.8232L299.67 54.8265C299.617 54.8275 299.564 54.8245 299.512 54.8174C298.946 54.7412 298.549 54.2208 298.625 53.655C298.631 53.6147 298.665 53.4894 298.728 53.2791ZM303.32 75.3205C303.491 74.7525 304.013 74.3626 304.606 74.3595C304.609 74.3595 304.612 74.3595 304.616 74.3595C305.155 74.3623 305.59 74.8017 305.587 75.3409C305.586 75.537 305.586 75.6514 305.586 75.6842C305.586 75.6862 305.586 75.6886 305.586 75.6913C305.586 76.3307 305.074 76.8525 304.434 76.8646L304.262 76.8679C304.209 76.8689 304.156 76.8659 304.104 76.8589C303.538 76.7826 303.141 76.2622 303.217 75.6964C303.223 75.6561 303.257 75.5308 303.32 75.3205ZM166.976 59.2638C167.061 59.4566 167.108 59.5722 167.118 59.6108C167.262 60.1687 166.926 60.7378 166.368 60.8819C166.32 60.8944 166.27 60.9035 166.221 60.9089L166.025 60.9302C165.386 60.9998 164.81 60.5417 164.735 59.9034C164.731 59.8715 164.717 59.7617 164.694 59.5741C164.627 59.0258 165.017 58.5268 165.565 58.4594C166.162 58.3862 166.736 58.7133 166.976 59.2638ZM165.515 79.1671C165.611 79.3874 165.665 79.5196 165.676 79.5636C165.841 80.2013 165.457 80.8517 164.82 81.0163C164.764 81.0307 164.708 81.041 164.651 81.0472L164.428 81.0715C163.697 81.1511 163.039 80.6275 162.953 79.8981C162.948 79.8616 162.933 79.7362 162.907 79.5217C162.83 78.8951 163.275 78.3248 163.902 78.2478C164.584 78.1641 165.239 78.5379 165.515 79.1671ZM212.441 12.02C212.737 11.029 213.648 10.3499 214.682 10.3499C215.633 10.3499 216.404 11.1206 216.404 12.0714C216.404 12.3989 216.404 12.5903 216.404 12.6458C216.409 13.7539 215.52 14.6586 214.412 14.6738L214.08 14.6783C213.993 14.6795 213.907 14.6745 213.821 14.6633C212.836 14.5341 212.142 13.6309 212.272 12.6458C212.281 12.5777 212.337 12.369 212.441 12.02Z" fill="#F6F0FF"></path> <path fill-rule="evenodd" clip-rule="evenodd" d="M189.787 190.077C190.848 198.369 191.69 203.114 192.312 204.312C193.246 206.109 198.052 207.756 198.971 207.756C199.583 207.756 222.236 209.669 266.932 213.496C270.299 213.496 273.207 212.501 275.656 210.511C276.644 209.709 276.544 208.561 277.034 206.838C277.517 205.137 277.976 201.54 278.411 196.046L266.932 190.077H189.787Z" fill="white"></path> <path d="M165.703 58.2466C164.966 58.3371 164.441 59.008 164.532 59.745C164.555 59.932 164.568 60.0418 164.572 60.073C164.67 60.8989 165.415 61.4916 166.242 61.4015L166.437 61.3802C166.504 61.373 166.569 61.361 166.634 61.3443C167.376 61.1527 167.822 60.3957 167.631 59.6536C167.614 59.5888 167.566 59.4709 167.471 59.2547C167.169 58.5647 166.45 58.1548 165.703 58.2466ZM166.84 59.5308C166.914 59.7002 166.961 59.8136 166.964 59.8259C167.06 60.1996 166.836 60.5809 166.462 60.6774C166.429 60.6858 166.396 60.6919 166.363 60.6955L166.167 60.7168C165.716 60.7659 165.31 60.4425 165.256 59.9917C165.252 59.9592 165.239 59.8494 165.216 59.6611C165.171 59.3016 165.427 58.9744 165.787 58.9303C166.232 58.8756 166.66 59.1198 166.84 59.5308ZM164.039 78.035C163.224 78.1351 162.644 78.8773 162.744 79.6927C162.77 79.9065 162.786 80.0319 162.79 80.0677C162.899 80.9847 163.726 81.6429 164.644 81.5429L164.868 81.5186C164.941 81.5105 165.014 81.4973 165.085 81.4788C165.907 81.2666 166.401 80.4283 166.189 79.6065C166.171 79.5362 166.116 79.4017 166.009 79.158C165.673 78.3894 164.872 77.9328 164.039 78.035ZM165.378 79.4341C165.465 79.6311 165.518 79.761 165.522 79.7787C165.639 80.2322 165.367 80.6948 164.913 80.8119C164.874 80.8221 164.833 80.8294 164.793 80.8338L164.57 80.8581C164.027 80.9172 163.538 80.5283 163.474 79.9864C163.469 79.9493 163.454 79.8239 163.428 79.6088C163.374 79.1709 163.685 78.7724 164.123 78.7187C164.654 78.6535 165.164 78.9444 165.378 79.4341ZM300.023 51.8046C299.279 51.8085 298.624 52.2979 298.41 53.0109C298.339 53.2457 298.304 53.3728 298.295 53.4399C298.194 54.1942 298.723 54.888 299.477 54.9896C299.547 54.999 299.617 55.0031 299.687 55.0017L299.86 54.9984C300.687 54.9827 301.349 54.3079 301.349 53.4808L301.349 53.4741C301.349 53.442 301.35 53.3276 301.351 53.1321C301.354 52.4027 300.766 51.8083 300.037 51.8046C300.03 51.8046 300.03 51.8046 300.023 51.8046ZM298.978 53.5319C298.98 53.5182 299.014 53.3948 299.069 53.2091C299.196 52.7861 299.585 52.4957 300.027 52.4934C300.03 52.4934 300.03 52.4934 300.033 52.4934C300.382 52.4952 300.664 52.7796 300.662 53.1286C300.661 53.3254 300.66 53.4398 300.66 53.4732L300.66 53.4807C300.66 53.9325 300.299 54.3012 299.847 54.3098L299.674 54.3131C299.639 54.3137 299.604 54.3117 299.569 54.307C299.192 54.2562 298.927 53.9091 298.978 53.5319ZM304.615 73.846C303.871 73.8499 303.216 74.3393 303.002 75.0523C302.931 75.2871 302.896 75.4142 302.887 75.4813C302.786 76.2356 303.315 76.9294 304.069 77.0311C304.139 77.0404 304.209 77.0445 304.279 77.0431L304.452 77.0399C305.279 77.0241 305.941 76.3493 305.941 75.5222L305.941 75.5155C305.941 75.4834 305.942 75.369 305.943 75.1735C305.946 74.4441 305.358 73.8497 304.629 73.846C304.622 73.846 304.622 73.846 304.615 73.846ZM303.57 75.5733C303.572 75.5597 303.605 75.4362 303.661 75.2505C303.788 74.8275 304.177 74.5371 304.619 74.5348C304.622 74.5348 304.622 74.5348 304.625 74.5348C304.974 74.5366 305.256 74.821 305.254 75.17C305.253 75.3668 305.252 75.4812 305.252 75.5146L305.252 75.5221C305.252 75.9739 304.891 76.3426 304.439 76.3512L304.266 76.3545C304.231 76.3551 304.196 76.3531 304.161 76.3484C303.784 76.2976 303.519 75.9505 303.57 75.5733ZM211.914 12.6913C211.76 13.8649 212.587 14.9411 213.76 15.0949C213.862 15.1083 213.965 15.1143 214.068 15.1129L214.4 15.1083C215.697 15.0906 216.737 14.0316 216.732 12.7347C216.732 12.6798 216.732 12.4884 216.732 12.1616C216.732 11.0206 215.807 10.0956 214.666 10.0956C213.48 10.0956 212.434 10.8748 212.095 12.0117C211.983 12.3852 211.926 12.5962 211.914 12.6913ZM214.666 10.7844C215.427 10.7844 216.043 11.401 216.043 12.1616C216.043 12.4897 216.043 12.6812 216.044 12.7374C216.047 13.6565 215.31 14.407 214.391 14.4196L214.059 14.4242C213.989 14.4251 213.919 14.4211 213.85 14.412C213.053 14.3076 212.492 13.5773 212.597 12.7808C212.602 12.7395 212.658 12.5332 212.755 12.2086C213.007 11.3636 213.784 10.7844 214.666 10.7844Z" fill="#67577F"></path> <path d="M191.705 74.01L188.797 80.0993L165.77 79.409L165.75 80.0975L189.226 80.8012L192.477 73.9917L206.149 73.667L206.132 72.9784L192.078 73.3122L189.691 63.9281L167.103 59.7419L166.978 60.4191L189.132 64.5251L191.546 74.0138L191.705 74.01Z" fill="#67577F"></path> <path fill-rule="evenodd" clip-rule="evenodd" d="M241.446 103.518L274.738 97.0897L259.814 137.269H246.957L241.446 103.518Z" fill="#5450FC"></path> <path fill-rule="evenodd" clip-rule="evenodd" d="M199.889 144.387L146.71 131.752C139.372 130.009 131.637 131.575 125.556 136.037L88.614 163.137C82.5859 167.56 78.7808 174.386 78.19 181.839L73.1509 245.41H85.09L92.1209 186.351C92.7636 180.952 95.5552 176.04 99.8648 172.724L133.441 146.897C136.282 144.711 139.907 143.811 143.44 144.413L198.511 153.8L199.889 144.387Z" fill="white"></path> <path d="M200.275 144.125L146.79 131.417C139.353 129.65 131.515 131.238 125.352 135.759L88.4103 162.86C82.3014 167.341 78.4454 174.259 77.8467 181.812L72.7781 245.754H85.3958L92.4628 186.391C93.0946 181.084 95.8386 176.256 100.075 172.997L133.651 147.17C136.416 145.043 139.944 144.167 143.383 144.753L198.801 154.199L200.275 144.125ZM198.222 153.402L143.498 144.074C139.87 143.455 136.148 144.38 133.231 146.624L99.6548 172.451C95.2718 175.823 92.4325 180.819 91.7788 186.31L84.7841 245.066H73.5236L78.5333 181.867C79.1162 174.513 82.8703 167.778 88.8177 163.415L125.759 136.314C131.76 131.913 139.39 130.367 146.631 132.087L199.503 144.649L198.222 153.402Z" fill="#67577F"></path> <path fill-rule="evenodd" clip-rule="evenodd" d="M198.767 207.402L195.297 193.521L260.732 197.883L261.481 199.823L266.929 213.142C270.864 212.974 273.552 212.305 274.982 211.161C276.256 210.142 277.241 206.316 277.866 199.769L267.85 192.233L272.901 138.188L283.692 157.474L278.755 197.4C278.756 197.417 278.756 197.433 278.755 197.45C278.134 205.675 277.053 210.386 275.412 211.698C273.832 212.963 270.993 213.665 266.885 213.833L266.932 213.955L198.971 208.215L198.942 208.1C194.805 207.953 191.374 204.847 190.82 200.742L189.425 190.39L190.107 190.298L191.503 200.65C192.003 204.356 195.055 207.177 198.767 207.402Z" fill="#5450FC"></path> <path d="M187.031 80.9615L189.414 92.8757C191.65 104.054 202.515 111.31 213.696 109.092L274.508 97.0333L267.754 68.456C263.005 48.3669 243.754 35.1869 223.308 38.0266C220.596 38.4032 217.69 38.9049 214.59 39.5317C195.551 43.3801 183.222 61.9151 187.031 80.9615Z" fill="white"></path> <mask id="mask0" maskUnits="userSpaceOnUse" x="186" y="37" width="89" height="73"> <path d="M187.032 80.9616L189.414 92.8759C191.65 104.054 202.515 111.31 213.696 109.093L274.508 97.0335L267.754 68.4562C263.005 48.3671 243.754 35.187 223.308 38.0268C220.597 38.4034 217.691 38.9051 214.59 39.5318C195.551 43.3803 183.222 61.9153 187.032 80.9616Z" fill="white"></path> </mask> <g mask="url(#mask0)"> <path fill-rule="evenodd" clip-rule="evenodd" d="M186.572 102.371L234.734 94.3436C239.439 93.5595 242.76 89.3041 242.378 84.5496L241.436 72.8116C240.989 67.2502 236.119 63.1037 230.557 63.5502C230.169 63.5815 229.782 63.6352 229.399 63.7112L179.225 73.6708L186.572 102.371Z" fill="#BEFF61"></path> <path d="M186.317 102.533L234.79 94.4537C239.672 93.6402 243.118 89.2253 242.722 84.2925L241.779 72.5545C241.317 66.8034 236.281 62.5156 230.53 62.9774C230.128 63.0096 229.728 63.0652 229.332 63.1438L178.801 73.1742L186.317 102.533ZM179.649 73.7082L229.466 63.8194C229.836 63.746 230.209 63.6941 230.585 63.6639C235.957 63.2326 240.661 67.2377 241.093 72.6096L242.035 84.3476C242.403 88.9238 239.206 93.0196 234.677 93.7743L186.828 101.749L179.649 73.7082Z" fill="#67577F"></path> </g> <path d="M215.142 27.6845L215.042 14.664C215.042 14.4738 214.888 14.3196 214.698 14.3196C214.508 14.3196 214.354 14.4738 214.354 14.664L214.453 28.0289C214.453 28.2191 214.607 28.3733 214.797 28.3733H224.102L218.854 38.4311C218.766 38.5997 218.832 38.8078 219 38.8958C219.169 38.9837 219.377 38.9184 219.465 38.7497L224.975 28.1882C225.095 27.9589 224.929 27.6845 224.67 27.6845H215.142Z" fill="#67577F"></path> <path d="M186.694 81.029L189.077 92.9433C191.349 104.307 202.396 111.684 213.763 109.43L274.575 97.3712C274.767 97.3332 274.888 97.144 274.844 96.9541L268.089 68.3768C263.3 48.1148 243.883 34.8213 223.261 37.6855C220.542 38.0631 217.629 38.566 214.522 39.1941C195.297 43.0802 182.847 61.7964 186.694 81.029ZM213.629 108.755C202.634 110.935 191.95 103.8 189.752 92.8082L187.369 80.8939C183.597 62.0338 195.806 43.6801 214.658 39.8692C217.752 39.2438 220.651 38.7433 223.355 38.3678C243.626 35.5524 262.711 48.619 267.419 68.5352L274.091 96.765L213.629 108.755Z" fill="#67577F"></path> <path fill-rule="evenodd" clip-rule="evenodd" d="M196.547 137.18L189.016 186.062C188.475 189.571 190.881 192.854 194.39 193.395C194.57 193.422 194.751 193.443 194.932 193.455L260.815 197.944C264.127 198.17 267.065 195.837 267.598 192.561L275.452 144.195C276.021 140.69 273.642 137.388 270.137 136.819C269.956 136.79 269.774 136.768 269.591 136.754L203.385 131.748C200.037 131.495 197.058 133.861 196.547 137.18Z" fill="white"></path> <path d="M196.206 137.127L188.675 186.01C188.106 189.707 190.641 193.166 194.338 193.735C194.527 193.764 194.718 193.785 194.909 193.798L260.791 198.288C264.28 198.526 267.377 196.068 267.937 192.616L275.792 144.25C276.392 140.558 273.884 137.079 270.192 136.479C270.002 136.448 269.81 136.425 269.617 136.411L203.411 131.405C199.884 131.138 196.745 133.631 196.206 137.127ZM196.887 137.232C197.371 134.092 200.191 131.852 203.359 132.092L269.565 137.098C269.738 137.111 269.91 137.131 270.082 137.159C273.399 137.698 275.651 140.823 275.112 144.14L267.258 192.506C266.754 195.607 263.973 197.814 260.838 197.601L194.956 193.111C194.784 193.1 194.613 193.081 194.443 193.054C191.122 192.543 188.844 189.436 189.356 186.115L196.887 137.232Z" fill="#67577F"></path> <path fill-rule="evenodd" clip-rule="evenodd" d="M70.3359 244.828C70.1287 248.822 73.1984 252.227 77.1921 252.434C77.3098 252.441 77.4276 252.444 77.5455 252.444L81.48 252.456C85.5259 252.468 88.8155 249.198 88.8277 245.152C88.8277 245.141 88.8277 245.13 88.8277 245.119C88.8215 241.019 85.5592 237.666 81.4609 237.547L78.33 237.456C74.1048 237.333 70.5549 240.607 70.3359 244.828Z" fill="white"></path> <path fill-rule="evenodd" clip-rule="evenodd" d="M157.476 331.413L191.164 315.112L148.562 285.131L115.397 298.564" fill="white"></path> <path d="M70.107 245.046C69.8899 249.23 73.1056 252.797 77.2893 253.015C77.4125 253.021 77.5359 253.024 77.6594 253.025L81.5939 253.036C85.83 253.049 89.2743 249.626 89.287 245.389L89.2871 245.355C89.2806 241.069 85.8702 237.563 81.5859 237.439L78.455 237.348C74.0427 237.219 70.3356 240.638 70.107 245.046ZM70.7948 245.082C71.0041 241.048 74.3969 237.919 78.435 238.036L81.5659 238.127C85.4782 238.241 88.5924 241.442 88.5983 245.356L88.5983 245.387C88.5867 249.243 85.4517 252.359 81.596 252.348L77.6615 252.336C77.5492 252.336 77.437 252.332 77.3249 252.327C73.5211 252.129 70.5975 248.886 70.7948 245.082Z" fill="#67577F"></path> <path fill-rule="evenodd" clip-rule="evenodd" d="M68.1004 331.413L32.0535 347.122C11.0109 324.472 0.525953 312.839 0.598611 312.223C0.671269 311.607 13.0696 307.015 37.7935 298.447L68.1004 331.413Z" fill="white"></path> <path fill-rule="evenodd" clip-rule="evenodd" d="M71.7725 376.607L153.051 376.051L157.643 331.509H68.0997L49.5023 339.545L51.7982 358.143L71.7725 376.607Z" fill="white"></path> <path fill-rule="evenodd" clip-rule="evenodd" d="M101.162 331.509V358.143L115.397 349.418L128.714 358.143V331.509H101.162Z" fill="#F6F0FF"></path> <path d="M71.4325 376.569L51.4739 358.313L48.9736 340.028L31.9638 347.441L0 311.977L37.89 298.275L68.3399 331.069H157.398L190.488 315.056L148.519 285.52L115.626 299.136L115.368 298.498L148.608 284.741L191.842 315.167L157.975 331.554L153.363 376.297L71.456 376.857L71.4325 376.569ZM71.3503 375.56L67.7887 331.828L49.6297 339.742L52.1226 357.973L71.3503 375.56ZM68.474 331.757L72.0906 376.164L152.741 375.613L157.262 331.757H68.474ZM37.6955 299.078L1.19723 312.277L32.1433 346.611L67.5175 331.195L37.6955 299.078Z" fill="#67577F"></path> <path d="M128.525 358.431C128.754 358.581 129.058 358.417 129.058 358.143V331.509C129.058 331.319 128.904 331.165 128.714 331.165H101.162C100.972 331.165 100.817 331.319 100.817 331.509V358.143C100.817 358.412 101.112 358.577 101.342 358.436L115.391 349.826L128.525 358.431ZM128.369 331.854V357.505L115.586 349.13C115.474 349.057 115.331 349.055 115.217 349.124L101.506 357.528V331.854H128.369Z" fill="#67577F"></path> <path d="M193.803 81.4712C193.586 80.3509 194.317 79.2663 195.437 79.0485C196.558 78.8307 197.642 79.5624 197.86 80.6826L199.087 86.9933C199.305 88.1135 198.573 89.1982 197.453 89.416C196.332 89.6337 195.248 88.9021 195.03 87.7818L193.803 81.4712Z" fill="white"></path> <path d="M226.148 77.4185C225.993 76.1599 226.888 75.0143 228.147 74.8598C229.405 74.7053 230.551 75.6003 230.705 76.8589L231.489 83.2397C231.643 84.4983 230.748 85.6438 229.49 85.7984C228.231 85.9529 227.086 85.0579 226.931 83.7993L226.148 77.4185Z" fill="white"></path> <path d="M228.375 74.8318L227.919 74.8878C226.786 75.0269 225.981 76.0579 226.12 77.1906L226.959 84.0272C227.098 85.1599 228.129 85.9654 229.262 85.8263L229.718 85.7704C230.851 85.6313 231.656 84.6003 231.517 83.4676L230.678 76.631C230.538 75.4982 229.507 74.6927 228.375 74.8318ZM228.459 75.5155C229.214 75.4227 229.901 75.9598 229.994 76.7149L230.833 83.5515C230.926 84.3067 230.389 84.994 229.634 85.0867L229.178 85.1427C228.423 85.2354 227.736 84.6984 227.643 83.9432L226.803 77.1066C226.711 76.3515 227.248 75.6641 228.003 75.5714L228.459 75.5155ZM228.259 75.7713C227.504 75.8641 226.967 76.5514 227.059 77.3065L227.843 83.6874C227.936 84.4425 228.623 84.9795 229.378 84.8868C230.133 84.7941 230.67 84.1067 230.577 83.3516L229.794 76.9708C229.701 76.2156 229.014 75.6786 228.259 75.7713ZM231.395 74.9136C231.585 74.9336 231.754 74.7965 231.774 74.6074C231.794 74.4182 231.657 74.2487 231.468 74.2287L225.107 73.5559C224.918 73.5359 224.749 73.6731 224.729 73.8622C224.709 74.0514 224.846 74.2209 225.035 74.2409L231.395 74.9136ZM192.666 79.7321L198.635 77.4361C198.813 77.3679 198.901 77.1686 198.833 76.9911C198.765 76.8135 198.565 76.725 198.388 76.7933L192.418 79.0892C192.241 79.1575 192.152 79.3568 192.22 79.5343C192.289 79.7118 192.488 79.8004 192.666 79.7321ZM210.826 88.8037C211.722 87.6973 212.877 87.0736 214.308 86.9231C216.686 86.6732 217.217 86.7382 219.05 87.5342C219.225 87.61 219.427 87.53 219.503 87.3555C219.579 87.1811 219.499 86.9782 219.325 86.9024C217.375 86.0559 216.726 85.9764 214.236 86.2381C212.623 86.4076 211.302 87.1215 210.291 88.3703C210.171 88.5181 210.194 88.7349 210.342 88.8546C210.49 88.9743 210.706 88.9515 210.826 88.8037ZM195.712 78.7802L195.258 78.8521C194.131 79.0306 193.362 80.0891 193.541 81.2163L194.618 88.0194C194.797 89.1466 195.855 89.9156 196.982 89.7371L197.436 89.6653C198.563 89.4867 199.332 88.4283 199.154 87.3011L198.076 80.4979C197.898 79.3707 196.839 78.6017 195.712 78.7802ZM195.82 79.4606C196.571 79.3415 197.277 79.8542 197.396 80.6057L198.473 87.4088C198.592 88.1603 198.08 88.8659 197.328 88.9849L196.875 89.0568C196.123 89.1758 195.418 88.6631 195.299 87.9117L194.221 81.1085C194.102 80.3571 194.615 79.6514 195.366 79.5324L195.82 79.4606ZM195.629 79.7232C194.877 79.8423 194.365 80.5479 194.484 81.2994L195.489 87.649C195.608 88.4004 196.314 88.9131 197.066 88.7941C197.817 88.6751 198.33 87.9694 198.211 87.218L197.205 80.8684C197.086 80.1169 196.38 79.6042 195.629 79.7232Z" fill="#67577F"></path> <path fill-rule="evenodd" clip-rule="evenodd" d="M157.184 331.413H68.1005L37.7935 298.581H115.398L157.184 331.413ZM61.25 352.401C59.6654 352.855 57.6442 350.655 56.7354 347.485C55.8267 344.316 56.3746 341.379 57.9592 340.924C59.5437 340.47 61.565 342.671 62.4737 345.84C63.3825 349.009 62.8346 351.947 61.25 352.401Z" fill="#5450FC"></path> <path fill-rule="evenodd" clip-rule="evenodd" d="M241.921 209.112L254.413 280.998L250.171 361.587L237.421 373.08C236.667 373.759 236.607 374.921 237.286 375.674C237.635 376.06 238.13 376.281 238.651 376.281H278.871C273.147 333.079 268.515 300.859 264.974 279.62C261.554 259.1 256.866 235.115 250.91 207.666C250.544 205.976 249.049 204.771 247.32 204.771C246.913 204.771 246.522 204.771 246.147 204.771C245.836 204.771 245.498 204.791 245.134 204.832C243.117 205.056 241.665 206.873 241.889 208.889C241.897 208.964 241.908 209.038 241.921 209.112Z" fill="white"></path> <path d="M249.725 361.426L237.081 372.824C236.186 373.631 236.114 375.01 236.921 375.905C237.335 376.363 237.923 376.625 238.541 376.625H278.761C278.97 376.625 279.13 376.442 279.103 376.236C273.379 333.031 268.746 300.807 265.205 279.564C261.783 259.037 257.094 235.047 251.137 207.593C250.736 205.745 249.102 204.427 247.211 204.427H246.038C245.713 204.427 245.362 204.448 244.986 204.49C242.781 204.735 241.192 206.722 241.437 208.927C241.446 209.009 241.458 209.09 241.472 209.171L253.958 281.018L249.725 361.426ZM249.718 361.569L249.831 361.331L249.725 361.426L249.718 361.569ZM278.368 375.937H238.541C238.119 375.937 237.716 375.757 237.433 375.443C236.881 374.831 236.93 373.888 237.542 373.336L250.292 361.842C250.36 361.781 250.401 361.696 250.406 361.605L254.648 281.016L254.643 280.939L242.151 209.053C242.139 208.986 242.129 208.919 242.122 208.851C241.919 207.024 243.235 205.378 245.062 205.174C245.414 205.135 245.74 205.116 246.038 205.116H247.211C248.777 205.116 250.132 206.208 250.464 207.739C256.419 235.183 261.106 259.162 264.525 279.677C268.055 300.847 272.669 332.934 278.368 375.937Z" fill="#67577F"></path> <path fill-rule="evenodd" clip-rule="evenodd" d="M251.365 280.26C250.943 276.714 253.471 273.495 257.017 273.065L259.363 272.781C262.919 272.35 266.169 274.833 266.689 278.376C266.696 278.421 266.702 278.466 266.707 278.512C267.138 281.964 264.687 285.112 261.234 285.543L258.542 285.878C258.53 285.88 258.518 285.881 258.507 285.882C254.982 286.302 251.784 283.785 251.365 280.26ZM255.495 279.636C255.686 281.186 257.096 282.29 258.647 282.103L259.903 281.951C261.402 281.77 262.471 280.408 262.29 278.909C262.287 278.882 262.283 278.855 262.279 278.828C262.045 277.275 260.621 276.188 259.061 276.371L257.958 276.5C256.416 276.681 255.312 278.078 255.493 279.62C255.494 279.625 255.495 279.631 255.495 279.636Z" fill="#F6F0FF"></path> <path d="M250.855 280.464C250.41 276.729 253.073 273.339 256.807 272.886L259.153 272.602C262.895 272.148 266.315 274.761 266.862 278.489C266.869 278.537 266.875 278.584 266.881 278.632C267.335 282.274 264.75 285.594 261.109 286.047L258.416 286.383L258.379 286.387C254.666 286.829 251.297 284.177 250.855 280.464ZM251.539 280.382C251.936 283.718 254.962 286.1 258.298 285.703L258.331 285.699L261.024 285.364C264.288 284.957 266.604 281.981 266.197 278.717C266.192 278.674 266.186 278.632 266.18 278.589C265.687 275.23 262.606 272.877 259.236 273.286L256.89 273.57C253.533 273.977 251.139 277.024 251.539 280.382ZM254.983 279.823C254.78 278.092 256.019 276.524 257.75 276.321L258.853 276.192C260.597 275.987 262.19 277.203 262.452 278.94C262.456 278.97 262.461 279 262.464 279.03C262.668 280.718 261.464 282.252 259.776 282.456L258.52 282.608C256.78 282.818 255.199 281.58 254.985 279.841L254.983 279.823ZM258.438 281.924L259.694 281.772C261.004 281.614 261.939 280.423 261.78 279.113C261.778 279.089 261.774 279.066 261.771 279.042C261.564 277.673 260.309 276.714 258.933 276.876L257.83 277.005C256.477 277.164 255.509 278.39 255.667 279.743L255.669 279.757C255.836 281.119 257.075 282.088 258.438 281.924Z" fill="#67577F"></path> <path fill-rule="evenodd" clip-rule="evenodd" d="M223.469 207.587L200.807 280.228L234.288 341.841L232.204 363.257C232.105 364.267 232.844 365.165 233.854 365.263C234.35 365.311 234.845 365.156 235.224 364.832L266.202 338.397L258.855 331.05L211.627 280.66L232.209 209.184C232.737 207.35 231.678 205.434 229.844 204.906C229.533 204.817 229.211 204.771 228.887 204.771C228.563 204.771 228.23 204.751 227.888 204.712C225.916 204.485 224.061 205.692 223.469 207.587Z" fill="white"></path> <path d="M234.146 342.006L234.106 341.808L234.096 341.913L234.146 342.006ZM232.022 363.224C231.905 364.423 232.782 365.489 233.981 365.606C234.57 365.663 235.158 365.479 235.608 365.094L266.587 338.659C266.74 338.529 266.749 338.296 266.607 338.154L259.26 330.807L212.173 280.567L232.7 209.279C233.281 207.262 232.117 205.156 230.1 204.575C229.758 204.477 229.404 204.427 229.048 204.427C228.737 204.427 228.418 204.408 228.088 204.37C225.952 204.123 223.942 205.431 223.301 207.484L200.639 280.126C200.612 280.215 200.621 280.311 200.665 280.393L234.096 341.913L232.022 363.224ZM235.161 364.57C234.853 364.833 234.451 364.96 234.048 364.92C233.227 364.84 232.627 364.111 232.707 363.29L234.792 341.875C234.798 341.806 234.784 341.737 234.752 341.677L201.34 280.192L223.959 207.689C224.501 205.952 226.201 204.846 228.009 205.054C228.364 205.095 228.711 205.116 229.048 205.116C229.339 205.116 229.629 205.157 229.909 205.237C231.561 205.713 232.514 207.437 232.038 209.089L211.457 280.565C211.423 280.681 211.453 280.807 211.536 280.896L258.765 331.286L265.856 338.377L235.161 364.57Z" fill="#67577F"></path> <path fill-rule="evenodd" clip-rule="evenodd" d="M199.089 282.38C198.424 278.923 200.631 275.564 204.069 274.802L206.515 274.26C209.838 273.523 213.141 275.571 213.96 278.874C214.772 282.155 212.774 285.475 209.494 286.293L206.417 287.06C206.312 287.086 206.206 287.11 206.099 287.13C202.851 287.754 199.713 285.628 199.089 282.38ZM203.212 281.679C203.506 283.107 204.901 284.027 206.329 283.734C206.353 283.729 206.377 283.723 206.4 283.718L207.928 283.36C209.304 283.037 210.158 281.661 209.835 280.285C209.83 280.263 209.824 280.24 209.819 280.218C209.443 278.792 208.018 277.91 206.575 278.21L205.323 278.47C203.855 278.775 202.911 280.211 203.212 281.679Z" fill="#F6F0FF"></path> <path d="M198.797 282.588C198.098 278.947 200.422 275.41 204.041 274.608L206.488 274.066C209.993 273.289 213.478 275.449 214.341 278.934C215.2 282.399 213.089 285.906 209.625 286.769L206.548 287.537C206.436 287.564 206.324 287.589 206.211 287.611C202.777 288.271 199.457 286.022 198.797 282.588ZM199.474 282.458C200.062 285.518 203.02 287.523 206.081 286.935C206.182 286.915 206.282 286.893 206.381 286.868L209.458 286.101C212.554 285.329 214.44 282.196 213.672 279.099C212.899 275.978 209.777 274.042 206.637 274.738L204.19 275.281C200.935 276.002 198.845 279.183 199.474 282.458ZM202.922 281.891C202.582 280.237 203.646 278.619 205.3 278.275L206.553 278.015C208.175 277.678 209.777 278.67 210.199 280.272C210.205 280.298 210.212 280.323 210.218 280.349C210.584 281.91 209.615 283.472 208.054 283.838L206.526 284.196C206.499 284.202 206.473 284.208 206.446 284.213C204.832 284.545 203.254 283.505 202.922 281.891ZM203.597 281.753C203.852 282.994 205.065 283.794 206.307 283.539C206.328 283.534 206.348 283.53 206.369 283.525L207.897 283.167C209.087 282.888 209.826 281.697 209.547 280.506C209.543 280.487 209.538 280.467 209.533 280.448C209.204 279.2 207.956 278.427 206.693 278.69L205.44 278.95C204.158 279.216 203.333 280.47 203.597 281.753Z" fill="#67577F"></path> <path fill-rule="evenodd" clip-rule="evenodd" d="M154.418 237.475C155.059 235.308 157.055 233.826 159.314 233.839C161.4 233.851 163.089 235.539 163.101 237.625C163.105 238.306 163.108 238.704 163.109 238.822C163.109 238.825 163.109 238.828 163.109 238.83C163.127 241.213 161.211 243.159 158.829 243.178L157.992 243.184C157.816 243.186 157.641 243.175 157.467 243.153C155.319 242.881 153.798 240.918 154.071 238.769C154.089 238.626 154.205 238.194 154.418 237.475ZM133.754 187.422C134.395 185.256 136.391 183.774 138.65 183.787C140.737 183.799 142.425 185.487 142.437 187.573C142.441 188.253 142.444 188.652 142.445 188.769C142.445 188.772 142.445 188.775 142.445 188.778C142.464 191.161 140.547 193.107 138.165 193.126L137.328 193.132C137.153 193.133 136.977 193.123 136.804 193.101C134.655 192.828 133.135 190.865 133.407 188.717C133.425 188.574 133.541 188.142 133.754 187.422ZM346.821 177.32C347.462 175.153 349.458 173.671 351.717 173.684C353.804 173.696 355.492 175.384 355.504 177.471C355.508 178.151 355.511 178.55 355.512 178.667C355.512 178.67 355.512 178.673 355.512 178.676C355.531 181.058 353.614 183.005 351.232 183.023L350.395 183.03C350.22 183.031 350.044 183.021 349.871 182.999C347.722 182.726 346.202 180.763 346.474 178.615C346.492 178.471 346.608 178.04 346.821 177.32ZM301.82 253.087C302.461 250.921 304.457 249.439 306.716 249.452C308.802 249.464 310.491 251.152 310.503 253.238C310.507 253.918 310.51 254.317 310.511 254.434C310.511 254.437 310.511 254.44 310.511 254.443C310.529 256.826 308.613 258.772 306.23 258.791L305.394 258.797C305.218 258.798 305.043 258.788 304.869 258.766C302.721 258.493 301.2 256.531 301.473 254.382C301.491 254.239 301.607 253.807 301.82 253.087ZM361.056 280.639C361.697 278.472 363.693 276.99 365.952 277.003C368.039 277.015 369.727 278.704 369.739 280.79C369.743 281.47 369.746 281.869 369.747 281.986C369.747 281.989 369.747 281.992 369.747 281.995C369.766 284.377 367.849 286.324 365.467 286.342L364.63 286.349C364.455 286.35 364.279 286.34 364.106 286.318C361.957 286.045 360.437 284.082 360.709 281.934C360.728 281.79 360.843 281.359 361.056 280.639ZM311.463 102.471C312.104 100.304 314.1 98.8222 316.359 98.8353C318.445 98.8473 320.134 100.535 320.146 102.622C320.15 103.302 320.153 103.701 320.154 103.818C320.154 103.821 320.154 103.824 320.154 103.827C320.173 106.209 318.256 108.156 315.874 108.174L315.037 108.181C314.861 108.182 314.686 108.172 314.512 108.15C312.364 107.877 310.843 105.914 311.116 103.766C311.134 103.622 311.25 103.191 311.463 102.471ZM40.0779 220.025C40.7188 217.859 42.7148 216.376 44.9743 216.389C47.0606 216.402 48.749 218.09 48.7613 220.176C48.7653 220.856 48.7679 221.255 48.7691 221.372C48.7691 221.375 48.7691 221.378 48.7692 221.381C48.7877 223.764 46.8712 225.71 44.4887 225.728L43.6518 225.735C43.4765 225.736 43.3014 225.726 43.1275 225.704C40.9791 225.431 39.4585 223.468 39.7312 221.32C39.7494 221.176 39.865 220.745 40.0779 220.025ZM95.1814 119.92C95.8223 117.754 97.8184 116.272 100.078 116.285C102.164 116.297 103.853 117.985 103.865 120.071C103.869 120.751 103.871 121.15 103.873 121.267C103.873 121.27 103.873 121.273 103.873 121.276C103.891 123.659 101.975 125.605 99.5923 125.624L98.7553 125.63C98.5801 125.632 98.4049 125.621 98.2311 125.599C96.0826 125.326 94.562 123.364 94.8348 121.215C94.853 121.072 94.9685 120.64 95.1814 119.92Z" fill="#5450FC"></path> <path fill-rule="evenodd" clip-rule="evenodd" d="M70.7145 278.404C66.7934 275.85 64.1052 271.522 63.8416 266.491C63.4036 258.134 69.8237 251.004 78.1812 250.566C86.5388 250.128 93.669 256.548 94.107 264.905C94.3755 270.029 92.0663 274.692 88.3132 277.633L82.6533 270.4C84.1318 269.241 85.0415 267.404 84.9357 265.386C84.7631 262.093 81.9543 259.564 78.6619 259.737C75.3695 259.909 72.8404 262.718 73.0129 266.011C73.1168 267.992 74.1758 269.698 75.7204 270.703L70.7145 278.404Z" fill="#F6F0FF"></path> <path d="M71.0298 279.025L70.741 278.837C66.6151 276.15 63.9747 271.665 63.7121 266.654C63.2641 258.106 69.8301 250.814 78.3776 250.366C86.9251 249.918 94.2174 256.484 94.6654 265.031C94.9329 270.137 92.6883 274.954 88.7401 278.049L88.4688 278.261L82.3844 270.486L82.6552 270.273C84.0888 269.15 84.9033 267.401 84.8062 265.548C84.6436 262.446 81.9968 260.062 78.8943 260.225C75.7919 260.388 73.4087 263.034 73.5713 266.137C73.6666 267.956 74.6247 269.584 76.1228 270.559L76.4112 270.747L71.0298 279.025ZM70.8302 278.068L75.4636 270.941C73.946 269.831 72.9843 268.097 72.8834 266.173C72.7009 262.691 75.376 259.72 78.8583 259.537C82.3406 259.355 85.3115 262.03 85.494 265.512C85.5969 267.475 84.7882 269.333 83.3453 270.596L88.584 277.291C92.1902 274.328 94.2271 269.829 93.9775 265.067C93.5495 256.9 86.5813 250.626 78.4137 251.054C70.2461 251.482 63.9719 258.45 64.3999 266.618C64.6448 271.289 67.0516 275.482 70.8302 278.068Z" fill="#67577F"></path> <path fill-rule="evenodd" clip-rule="evenodd" d="M285.053 163.151L371.904 129.038C373.793 128.296 375.925 129.226 376.666 131.114C376.756 131.342 376.822 131.578 376.865 131.818L394.181 229.803C394.402 231.052 393.568 232.243 392.32 232.464C391.888 232.54 391.444 232.491 391.04 232.323L282.637 187.322V198.342L392.091 246.094C397.67 248.527 404.165 245.978 406.599 240.399C407.439 238.473 407.711 236.347 407.383 234.272L389.997 124.274C388.849 117.01 382.029 112.052 374.765 113.2C373.688 113.37 372.636 113.672 371.632 114.099L281.048 152.621C279.057 153.468 277.826 155.488 277.988 157.646C278.035 158.282 278.131 158.913 278.274 159.54C278.279 159.561 278.284 159.581 278.289 159.601C278.925 162.317 281.642 164.003 284.359 163.367C284.595 163.312 284.827 163.239 285.053 163.151Z" fill="white"></path> <path d="M285.316 163.471L372.167 129.359C373.878 128.686 375.811 129.529 376.483 131.24C376.564 131.446 376.624 131.66 376.663 131.878L393.979 229.863C394.166 230.925 393.458 231.937 392.397 232.125C392.03 232.189 391.653 232.148 391.309 232.005L282.43 186.806V198.568L392.09 246.409C397.843 248.919 404.542 246.29 407.052 240.537C407.918 238.551 408.199 236.358 407.861 234.218L390.475 124.221C389.297 116.768 382.3 111.682 374.848 112.86C373.743 113.034 372.664 113.344 371.635 113.782L281.05 152.304C278.924 153.208 277.609 155.367 277.781 157.671C277.83 158.325 277.928 158.973 278.076 159.617C278.083 159.648 278.083 159.648 278.09 159.68C278.77 162.581 281.673 164.382 284.574 163.702C284.827 163.643 285.075 163.566 285.316 163.471ZM283.118 187.838L391.045 232.641C391.51 232.835 392.021 232.891 392.517 232.803C393.953 232.549 394.911 231.179 394.657 229.743L377.341 131.758C377.294 131.495 377.222 131.237 377.124 130.988C376.313 128.923 373.981 127.906 371.915 128.718L285.064 162.83C284.854 162.913 284.637 162.98 284.417 163.032C281.886 163.625 279.354 162.053 278.761 159.523C278.754 159.493 278.754 159.493 278.747 159.463C278.607 158.853 278.514 158.239 278.468 157.62C278.318 155.61 279.465 153.727 281.32 152.938L371.904 114.416C372.882 114 373.907 113.706 374.956 113.54C382.032 112.422 388.676 117.252 389.794 124.328L407.18 234.325C407.498 236.336 407.234 238.396 406.421 240.261C404.063 245.666 397.77 248.136 392.366 245.778L283.118 198.117V187.838Z" fill="#67577F"></path> <path fill-rule="evenodd" clip-rule="evenodd" d="M285.995 229.487C281.6 227.881 278.007 224.268 276.619 219.426C274.312 211.381 278.964 202.989 287.008 200.683C295.053 198.376 303.445 203.027 305.752 211.072C307.166 216.004 305.965 221.067 302.97 224.778L295.828 219.003C297.008 217.541 297.481 215.547 296.924 213.604C296.015 210.434 292.709 208.602 289.54 209.511C286.371 210.419 284.538 213.725 285.447 216.894C285.994 218.802 287.409 220.225 289.141 220.858L285.995 229.487Z" fill="#F6F0FF"></path> <path d="M286.185 229.962L285.861 229.844C281.237 228.154 277.655 224.378 276.272 219.554C273.913 211.326 278.67 202.744 286.898 200.385C295.125 198.025 303.708 202.783 306.067 211.01C307.476 215.924 306.373 221.123 303.222 225.027L303.005 225.295L295.328 219.087L295.544 218.82C296.688 217.402 297.088 215.516 296.577 213.732C295.72 210.745 292.605 209.019 289.619 209.875C286.633 210.731 284.906 213.846 285.762 216.833C286.264 218.584 287.564 219.954 289.243 220.568L289.566 220.686L286.185 229.962ZM288.687 221.088C286.958 220.348 285.631 218.875 285.1 217.023C284.139 213.67 286.077 210.174 289.429 209.213C292.781 208.252 296.278 210.19 297.239 213.542C297.781 215.431 297.411 217.424 296.289 218.979L302.899 224.324C305.747 220.625 306.719 215.784 305.405 211.2C303.151 203.338 294.95 198.792 287.088 201.047C279.226 203.301 274.68 211.502 276.934 219.364C278.224 223.861 281.512 227.405 285.775 229.075L288.687 221.088Z" fill="#67577F"></path> <path fill-rule="evenodd" clip-rule="evenodd" d="M288.439 203.118C292.399 202.559 295.156 198.896 294.598 194.936C294.581 194.819 294.562 194.703 294.54 194.587L293.801 190.723C293.041 186.749 289.203 184.144 285.229 184.904C285.218 184.906 285.208 184.908 285.197 184.91C281.173 185.699 278.504 189.541 279.169 193.587L279.677 196.677C280.363 200.848 284.254 203.708 288.439 203.118Z" fill="white"></path> <path d="M288.406 203.355C292.554 202.769 295.443 198.932 294.857 194.784C294.84 194.662 294.82 194.54 294.797 194.419L294.058 190.554C293.262 186.393 289.244 183.666 285.083 184.461L285.049 184.468C280.843 185.292 278.053 189.309 278.748 193.538L279.256 196.629C279.972 200.985 284.035 203.971 288.406 203.355ZM288.31 202.673C284.31 203.237 280.591 200.503 279.936 196.517L279.427 193.426C278.793 189.564 281.341 185.896 285.182 185.144L285.213 185.138C289 184.414 292.657 186.896 293.381 190.683L294.12 194.548C294.141 194.658 294.16 194.769 294.175 194.88C294.708 198.652 292.081 202.14 288.31 202.673Z" fill="#67577F"></path> <path d="M207.879 139.115L265.058 143.245C266.829 143.373 268.161 144.912 268.033 146.683C268.028 146.75 268.021 146.816 268.012 146.882L262.503 187.603C262.271 189.313 260.731 190.535 259.014 190.372L200.963 184.866C199.196 184.699 197.899 183.13 198.067 181.363C198.073 181.292 198.082 181.222 198.094 181.152L204.474 141.806C204.741 140.163 206.218 138.995 207.879 139.115ZM201.272 181.633L259.333 187.22L264.89 146.456L207.647 142.321L201.272 181.633ZM223.336 164.821C221.053 164.821 219.203 162.971 219.203 160.688C219.203 158.406 221.053 156.556 223.336 156.556C225.618 156.556 227.468 158.406 227.468 160.688C227.468 162.971 225.618 164.821 223.336 164.821ZM217.007 169.752L246.782 171.834L246.654 173.666L216.879 171.584L217.007 169.752ZM242.262 166.183L238.505 161.706L242.982 157.949L246.739 162.426L242.262 166.183Z" fill="#F6F0FF"></path> <path fill-rule="evenodd" clip-rule="evenodd" d="M375.761 113.391C378.693 113.125 380.912 113.354 382.419 114.08C383.926 114.806 385.84 116.566 388.159 119.361L376.22 130.152C375.608 129.693 375.149 129.387 374.843 129.233C374.537 129.08 374.001 128.927 373.236 128.774L375.761 113.391ZM129.881 133.82C131.869 132.792 133.699 132.105 135.372 131.759C137.045 131.413 139.647 131.184 143.178 131.07L140.193 144.387L138.586 144.617L136.993 145.139L129.881 133.82ZM78.3837 180.235C79.0173 177.527 79.6455 175.45 80.2684 174.005C80.8913 172.56 82.0546 170.48 83.7584 167.766L94.2739 179.286L93.5401 180.734L93.0544 182.339L78.3837 180.235ZM407.675 235.767C406.888 239.659 405.893 242.261 404.69 243.573C403.488 244.885 401.115 245.957 397.573 246.788L392.063 232.553C392.901 232.304 393.442 232.059 393.686 231.82C393.931 231.58 394.155 231.136 394.359 230.486L407.675 235.767Z" fill="#5450FC"></path> <path d="M272.907 72.3753L277.265 79.0374L303.157 75.1669L303.259 75.8481L276.93 79.7839L272.276 72.6684L256.404 74.243C256.215 74.2618 256.046 74.1236 256.027 73.9343C256.009 73.745 256.147 73.5764 256.336 73.5576L272.263 71.9775L273.657 61.0106L298.512 53.1378C298.693 53.0803 298.887 53.1808 298.944 53.3621C299.002 53.5434 298.901 53.737 298.72 53.7944L274.284 61.5343L272.907 72.3753Z" fill="#67577F"></path> <path d="M207.894 177.103C207.695 177.085 207.553 176.902 207.585 176.705L211.947 149.842C211.976 149.666 212.135 149.54 212.313 149.554L258.003 152.998C258.202 153.013 258.346 153.192 258.318 153.39L254.415 180.941C254.389 181.123 254.226 181.252 254.043 181.236L207.894 177.103ZM212.577 150.264L208.324 176.45L253.779 180.521L257.585 153.657L212.577 150.264ZM207.696 138.873L264.875 143.004C266.836 143.145 268.31 144.849 268.168 146.81C268.163 146.883 268.155 146.957 268.145 147.03L262.636 187.751C262.38 189.644 260.675 190.997 258.773 190.817L200.723 185.311C198.766 185.125 197.33 183.389 197.516 181.432C197.523 181.354 197.533 181.276 197.546 181.198L203.926 141.853C204.221 140.033 205.857 138.74 207.696 138.873ZM207.646 139.56C206.163 139.453 204.844 140.496 204.606 141.963L198.226 181.309C198.216 181.371 198.208 181.434 198.202 181.497C198.052 183.075 199.21 184.476 200.788 184.625L258.838 190.131C260.372 190.277 261.747 189.185 261.953 187.659L267.463 146.938C267.471 146.879 267.477 146.819 267.481 146.76C267.596 145.179 266.407 143.805 264.826 143.691L207.646 139.56ZM200.665 182.042L207.15 142.056L265.073 146.241L259.422 187.696L200.665 182.042ZM258.829 186.947L264.291 146.875L207.729 142.789L201.463 181.427L258.829 186.947ZM223.308 165.166C220.835 165.166 218.831 163.161 218.831 160.688C218.831 158.216 220.835 156.211 223.308 156.211C225.781 156.211 227.785 158.216 227.785 160.688C227.785 163.161 225.781 165.166 223.308 165.166ZM223.308 164.477C225.4 164.477 227.096 162.781 227.096 160.688C227.096 158.596 225.4 156.9 223.308 156.9C221.216 156.9 219.52 158.596 219.52 160.688C219.52 162.781 221.216 164.477 223.308 164.477ZM216.66 169.384L247.122 171.514L246.946 174.034L216.484 171.904L216.66 169.384ZM217.219 171.265L246.307 173.299L246.387 172.154L217.299 170.119L217.219 171.265ZM242.192 166.668L237.992 161.663L242.997 157.464L247.196 162.469L242.192 166.668ZM246.226 162.384L242.912 158.434L238.962 161.748L242.276 165.698L246.226 162.384Z" fill="#67577F"></path> <path d="M255.452 361.931V361.242V361.931ZM255.452 361.242C255.911 361.242 255.911 361.931 255.452 361.931H250.171C249.712 361.931 249.712 361.242 250.171 361.242H255.452H260.732C261.192 361.242 261.192 361.931 260.732 361.931H255.452C254.993 361.931 254.993 361.242 255.452 361.242ZM239.027 338.546L238.585 338.018L239.027 338.546ZM239.027 338.546L234.779 342.105C234.428 342.4 233.985 341.872 234.337 341.577L238.585 338.018L242.832 334.46C243.184 334.165 243.627 334.693 243.275 334.988L239.027 338.546Z" fill="#67577F"></path> </svg> 